HIERARCHY
ROOT Hips
{
	OFFSET -0.001795 -0.223333 0.028219
	CHANNELS 6 Xposition Yposition Zposition Zrotation Yrotation Xrotation 
	JOINT LeftUpLeg
	{
		OFFSET 0.069520 -0.091406 -0.006815
		CHANNELS 3 Zrotation Yrotation Xrotation
		JOINT LeftLeg
		{
			OFFSET 0.034277 -0.375199 -0.004496
			CHANNELS 3 Zrotation Yrotation Xrotation
			JOINT LeftFoot
			{
				OFFSET -0.013596 -0.397961 -0.043693
				CHANNELS 3 Zrotation Yrotation Xrotation
				JOINT LeftToe
				{
					OFFSET 0.026358 -0.055791 0.119288
					CHANNELS 3 Zrotation Yrotation Xrotation
					End Site
					{
						OFFSET 0.000000 0.000000 0.000000
					}
				}
			}
		}
	}
	JOINT RightUpLeg
	{
		OFFSET -0.067670 -0.090522 -0.004320
		CHANNELS 3 Zrotation Yrotation Xrotation
		JOINT RightLeg
		{
			OFFSET -0.038290 -0.382569 -0.008850
			CHANNELS 3 Zrotation Yrotation Xrotation
			JOINT RightFoot
			{
				OFFSET 0.015774 -0.398415 -0.042312
				CHANNELS 3 Zrotation Yrotation Xrotation
				JOINT RightToe
				{
					OFFSET -0.025372 -0.048144 0.123348
					CHANNELS 3 Zrotation Yrotation Xrotation
					End Site
					{
						OFFSET 0.000000 0.000000 0.000000
					}
				}
			}
		}
	}
	JOINT Spine
	{
		OFFSET -0.002533 0.108963 -0.026696
		CHANNELS 3 Zrotation Yrotation Xrotation
		JOINT Spine1
		{
			OFFSET 0.005487 0.135180 0.001092
			CHANNELS 3 Zrotation Yrotation Xrotation
			JOINT Spine2
			{
				OFFSET 0.001457 0.052922 0.025425
				CHANNELS 3 Zrotation Yrotation Xrotation
				JOINT Neck
				{
					OFFSET -0.002778 0.213870 -0.042857
					CHANNELS 3 Zrotation Yrotation Xrotation
					JOINT Head
					{
						OFFSET 0.005152 0.064970 0.051349
						CHANNELS 3 Zrotation Yrotation Xrotation
						End Site
						{
							OFFSET 0.000000 0.000000 0.000000
						}
					}
				}
				JOINT LeftShoulder
				{
					OFFSET 0.078845 0.121749 -0.034090
					CHANNELS 3 Zrotation Yrotation Xrotation
					JOINT LeftArm
					{
						OFFSET 0.090977 0.030469 -0.008868
						CHANNELS 3 Zrotation Yrotation Xrotation
						JOINT LeftForeArm
						{
							OFFSET 0.259612 -0.012772 -0.027456
							CHANNELS 3 Zrotation Yrotation Xrotation
							JOINT LeftHand
							{
								OFFSET 0.249234 0.008986 -0.001171
								CHANNELS 3 Zrotation Yrotation Xrotation
								End Site
								{
									OFFSET 0.000000 0.000000 0.000000
								}
							}
						}
					}
				}
				JOINT RightShoulder
				{
					OFFSET -0.081759 0.118833 -0.038615
					CHANNELS 3 Zrotation Yrotation Xrotation
					JOINT RightArm
					{
						OFFSET -0.096012 0.032551 -0.009143
						CHANNELS 3 Zrotation Yrotation Xrotation
						JOINT RightForeArm
						{
							OFFSET -0.253742 -0.013329 -0.021401
							CHANNELS 3 Zrotation Yrotation Xrotation
							JOINT RightHand
							{
								OFFSET -0.255298 0.007772 -0.005559
								CHANNELS 3 Zrotation Yrotation Xrotation
								End Site
								{
									OFFSET 0.000000 0.000000 0.000000
								}
							}
						}
					}
				}
			}
		}
	}
}
MOTION
Frames: 18
Frame Time: 0.050000
0.000000 0.937270 0.000000 -0.968218 1.978475 4.348262 9.544154 -0.257933 1.785320 -3.798555 0.388852 -8.595527 4.823153 12.618131 12.542165 0.000000 0.000000 0.000000 -6.967986 0.214823 -0.344974 3.013802 -0.375296 -3.540214 -5.298485 -14.601691 11.158887 0.000000 0.000000 0.000000 -2.628477 0.064165 -0.394598 5.078929 -0.888642 -19.353975 -0.849892 -1.710108 26.018014 -1.354325 2.137091 -22.353333 0.000000 0.000000 0.000000 -22.951324 2.141971 -2.582535 -50.929870 -9.154681 -4.439013 -6.367510 -22.828254 2.444279 0.000000 0.000000 0.000000 14.811806 4.042547 1.178428 55.357808 7.833366 -4.093586 -2.507490 19.162205 0.430493 0.000000 0.000000 0.000000 
0.000342 0.936569 0.000144 -1.086455 0.982645 4.727014 9.942042 -0.255303 2.162998 -3.543291 0.396694 -9.815632 4.921035 12.863454 13.729630 0.000000 0.000000 0.000000 -7.114695 0.273103 -1.127524 3.319639 -0.384514 -2.929430 -4.948236 -14.056219 11.375587 0.000000 0.000000 0.000000 -2.601552 0.091498 -1.644364 5.079587 -0.939929 -18.890524 -1.003534 -0.712469 26.577103 -1.982925 2.600163 -22.349193 0.000000 0.000000 0.000000 -22.595452 2.998866 -3.150187 -51.124107 -9.072592 -4.508694 -7.440077 -23.791661 2.783513 0.000000 0.000000 0.000000 14.780415 4.089906 1.291587 55.804680 7.856957 -4.165900 -3.853051 20.491039 0.283337 0.000000 0.000000 0.000000 
0.000601 0.936783 0.000060 -0.844517 1.159253 4.803504 9.742220 -0.255124 1.525274 -3.801467 0.400256 -8.796627 4.871116 12.735839 13.267818 0.000000 0.000000 0.000000 -7.513573 0.276647 -1.038116 3.469611 -0.401439 -3.295481 -4.846183 -13.896783 11.788237 0.000000 0.000000 0.000000 -2.595890 0.096900 -1.939933 5.093286 -0.943833 -18.820136 -1.387986 -0.959337 26.868734 -1.337614 2.152923 -21.763948 0.000000 0.000000 0.000000 -22.514711 2.373023 -2.716929 -51.109677 -9.536896 -4.363024 -6.571737 -23.077950 2.518028 0.000000 0.000000 0.000000 15.436231 4.594402 1.512809 55.027069 8.437284 -3.897690 -3.793989 19.684182 0.267179 0.000000 0.000000 0.000000 
0.000779 0.936269 0.000074 -0.866306 0.810769 4.881966 10.063961 -0.260609 1.543131 -4.026502 0.411173 -8.922082 5.183980 13.256229 13.788451 0.000000 0.000000 0.000000 -7.834245 0.309847 -1.582045 3.801294 -0.419102 -2.515635 -5.145094 -14.511228 12.074856 0.000000 0.000000 0.000000 -2.945072 0.107193 -2.337721 5.210354 -0.982987 -18.849329 -1.417455 -1.175891 27.173363 -2.173817 2.586343 -20.826383 0.000000 0.000000 0.000000 -22.726013 3.109197 -3.046292 -51.098474 -9.350106 -4.480068 -7.717368 -23.542068 2.837061 0.000000 0.000000 0.000000 14.974465 5.049779 1.667214 54.944230 8.784893 -3.765590 -3.557897 20.013229 0.293367 0.000000 0.000000 0.000000 
0.000878 0.936491 0.000077 -0.890675 1.078789 4.638496 10.056065 -0.262731 1.496920 -4.150663 0.411130 -8.767165 4.633617 12.410149 13.554691 0.000000 0.000000 0.000000 -7.844314 0.288268 -1.213770 3.453058 -0.394078 -2.707485 -5.067002 -14.392147 12.515276 0.000000 0.000000 0.000000 -2.974373 0.099393 -2.023784 5.315492 -1.028459 -18.587283 -1.638288 -1.218878 26.675881 -2.009434 2.490340 -20.522865 0.000000 0.000000 0.000000 -22.333715 2.842381 -2.903629 -51.406681 -9.251690 -4.469311 -8.300573 -23.583545 2.949571 0.000000 0.000000 0.000000 15.026094 4.816566 1.556669 54.659422 9.088809 -3.552398 -3.274914 19.834581 0.328682 0.000000 0.000000 0.000000 
0.001003 0.936587 0.000040 -0.936825 0.873113 4.655812 9.909536 -0.251701 1.421253 -3.860388 0.405675 -8.756485 4.634676 12.407197 13.640246 0.000000 0.000000 0.000000 -7.827413 0.298169 -1.391706 3.411018 -0.387701 -2.598405 -4.913422 -14.160233 12.761810 0.000000 0.000000 0.000000 -3.316662 0.105536 -2.312476 5.339898 -1.037356 -18.618179 -1.394567 -1.120977 27.071480 -2.193578 2.599819 -20.279959 0.000000 0.000000 0.000000 -21.984686 3.098428 -2.992404 -51.869659 -9.433354 -4.459396 -8.659437 -24.002983 3.098478 0.000000 0.000000 0.000000 14.603573 4.947796 1.631763 54.252551 9.465035 -3.411355 -3.028328 20.056904 0.366356 0.000000 0.000000 0.000000 
0.001103 0.936866 -0.000054 -0.967090 0.900803 4.483501 10.009010 -0.252224 1.512352 -4.075900 0.411004 -9.012545 4.654980 12.525789 14.172003 0.000000 0.000000 0.000000 -7.844424 0.288407 -1.196071 3.380587 -0.384784 -2.519107 -4.742787 -13.867838 12.918719 0.000000 0.000000 0.000000 -3.412953 0.101420 -2.093039 5.218541 -1.022782 -18.341969 -1.348695 -1.297829 26.974660 -2.213447 2.585227 -20.270213 0.000000 0.000000 0.000000 -22.002456 3.098934 -2.950525 -52.039375 -9.299517 -4.524312 -9.113166 -24.650677 3.301499 0.000000 0.000000 0.000000 14.280791 5.365306 1.807122 54.229945 9.749147 -3.268946 -2.958727 20.251770 0.371810 0.000000 0.000000 0.000000 
0.001236 0.936966 -0.000261 -1.070705 0.809890 4.392951 9.935366 -0.244594 1.499532 -3.898601 0.407779 -9.025676 4.599195 12.454372 14.290678 0.000000 0.000000 0.000000 -7.650799 0.282321 -1.132268 3.522040 -0.394825 -2.364531 -4.977549 -14.291145 12.819960 0.000000 0.000000 0.000000 -3.382416 0.101238 -2.143824 5.087930 -1.007158 -18.063416 -1.328772 -0.852114 26.938922 -2.006226 2.514314 -20.190067 0.000000 0.000000 0.000000 -21.865726 2.726589 -2.828677 -52.180758 -9.276573 -4.523685 -9.946104 -25.370990 3.578095 0.000000 0.000000 0.000000 14.338952 5.457077 1.929987 54.135030 10.220481 -3.060925 -3.117866 20.421464 0.362539 0.000000 0.000000 0.000000 
0.001336 0.936982 -0.000552 -1.085242 0.867352 4.359725 9.817816 -0.241304 1.459151 -3.871014 0.405958 -8.996756 4.516060 12.305496 14.111020 0.000000 0.000000 0.000000 -7.670684 0.281852 -1.156529 3.645039 -0.404931 -2.232336 -5.139021 -14.579497 12.843864 0.000000 0.000000 0.000000 -3.421261 0.100763 -2.139168 4.965484 -0.967618 -18.096171 -1.300268 -0.642073 27.037509 -1.901100 2.494983 -20.475480 0.000000 0.000000 0.000000 -21.493043 2.581935 -2.769512 -52.761958 -9.485766 -4.461529 -9.991042 -25.505703 3.603808 0.000000 0.000000 0.000000 14.136344 5.552672 2.029471 54.243463 10.603315 -2.900044 -3.237093 20.391052 0.351404 0.000000 0.000000 0.000000 
0.001341 0.936926 -0.000927 -1.145549 0.903432 4.350426 9.834868 -0.243147 1.405271 -3.866099 0.405382 -8.870548 4.330553 11.955615 13.676749 0.000000 0.000000 0.000000 -7.581445 0.283716 -1.285006 3.702781 -0.410036 -2.193297 -5.395047 -15.056209 13.041467 0.000000 0.000000 0.000000 -3.378704 0.100036 -2.100020 4.810628 -0.931851 -17.943006 -1.274931 -0.499332 26.944487 -1.849918 2.497089 -20.735792 0.000000 0.000000 0.000000 -21.314709 2.332347 -2.656498 -52.924871 -9.675175 -4.367529 -10.285251 -25.868367 3.717964 0.000000 0.000000 0.000000 13.818242 5.814794 2.187304 54.516431 10.901808 -2.751761 -3.429314 20.525107 0.328270 0.000000 0.000000 0.000000 
0.001209 0.936827 -0.001311 -1.151565 0.724118 4.340042 9.837973 -0.237950 1.395178 -3.847367 0.407702 -8.799565 4.306554 11.849343 13.360370 0.000000 0.000000 0.000000 -7.606263 0.288930 -1.327312 3.773498 -0.414302 -2.137083 -5.502185 -15.276365 13.155407 0.000000 0.000000 0.000000 -3.386019 0.099431 -1.989642 4.647110 -0.887879 -17.936204 -1.248925 -0.295569 26.805876 -1.790197 2.486122 -21.043660 0.000000 0.000000 0.000000 -21.384873 2.006026 -2.506539 -52.734944 -9.931906 -4.229075 -10.392864 -25.646350 3.694111 0.000000 0.000000 0.000000 13.803212 6.003655 2.293904 54.602532 11.318310 -2.550679 -3.300642 20.456558 0.347727 0.000000 0.000000 0.000000 
0.001042 0.936747 -0.001594 -1.178156 0.519760 4.260141 10.155223 -0.242319 1.414278 -4.020037 0.415812 -8.615756 4.201206 11.623258 13.111634 0.000000 0.000000 0.000000 -7.562476 0.290933 -1.341332 3.735984 -0.408397 -1.974164 -5.553181 -15.397407 13.240337 0.000000 0.000000 0.000000 -3.410860 0.095356 -1.624705 4.605720 -0.868680 -18.107044 -1.192534 -0.380364 26.580886 -1.522251 2.312752 -21.898287 0.000000 0.000000 0.000000 -21.624923 2.177819 -2.579873 -52.452153 -10.182390 -4.093933 -10.174629 -25.269695 3.589747 0.000000 0.000000 0.000000 13.625136 6.074292 2.278554 54.980991 11.650840 -2.373804 -3.202077 20.893667 0.366896 0.000000 0.000000 0.000000 
0.000935 0.936657 -0.001628 -1.329677 0.268841 4.226584 10.335336 -0.240900 1.351486 -3.996325 0.418715 -8.400565 4.303024 11.741285 13.013993 0.000000 0.000000 0.000000 -7.278867 0.287726 -1.301600 3.546918 -0.389539 -1.962079 -5.601701 -15.500508 13.144469 0.000000 0.000000 0.000000 -3.403293 0.093493 -1.420020 4.744904 -0.897750 -18.366417 -1.208764 -0.366169 26.483849 -1.224525 2.130438 -22.510583 0.000000 0.000000 0.000000 -21.910602 2.163303 -2.565789 -52.178459 -10.323139 -4.019227 -10.069256 -24.734537 3.483252 0.000000 0.000000 0.000000 13.753749 6.359989 2.389202 55.032544 11.996177 -2.209128 -3.232612 21.375766 0.368761 0.000000 0.000000 0.000000 
0.001011 0.936423 -0.001435 -1.429134 0.133549 4.145756 10.512701 -0.241359 1.377677 -4.036334 0.422020 -8.338728 4.392311 11.850062 12.906889 0.000000 0.000000 0.000000 -7.195828 0.287311 -1.305891 3.385635 -0.373241 -1.850924 -5.619804 -15.530667 12.975427 0.000000 0.000000 0.000000 -3.313161 0.089337 -1.187859 4.726687 -0.880821 -18.591365 -1.271019 -0.458947 26.373055 -0.892328 1.914780 -22.901518 0.000000 0.000000 0.000000 -22.079368 2.069085 -2.480268 -51.874017 -10.336712 -4.002858 -9.620544 -24.185681 3.302287 0.000000 0.000000 0.000000 13.932486 6.458584 2.400391 55.026612 11.965247 -2.215298 -3.170150 21.946997 0.386032 0.000000 0.000000 0.000000 
0.001228 0.936402 -0.001174 -1.439486 -0.095766 4.075273 10.616223 -0.235972 1.334916 -3.992773 0.423983 -8.231410 4.482904 12.009214 13.138555 0.000000 0.000000 0.000000 -7.141188 0.290239 -1.343044 3.229923 -0.356233 -1.714608 -5.676171 -15.651381 12.964619 0.000000 0.000000 0.000000 -3.340969 0.086932 -0.985885 4.861013 -0.908507 -18.822023 -1.274505 -0.562874 26.357076 -0.945599 1.917412 -23.121906 0.000000 0.000000 0.000000 -22.255028 2.366431 -2.603095 -51.727402 -10.422592 -3.969159 -9.405523 -23.796809 3.207469 0.000000 0.000000 0.000000 14.109362 6.336237 2.288121 54.818827 11.875692 -2.253903 -3.069429 22.641810 0.410525 0.000000 0.000000 0.000000 
0.001515 0.936423 -0.001003 -1.402990 -0.210006 3.979370 10.854151 -0.237093 1.253913 -4.180115 0.432849 -8.103062 4.511252 12.093313 13.450684 0.000000 0.000000 0.000000 -7.203239 0.289078 -1.270315 3.052423 -0.338415 -1.614011 -5.622360 -15.577085 13.072637 0.000000 0.000000 0.000000 -3.379866 0.084248 -0.790774 5.062231 -0.958745 -18.968360 -1.420359 -0.685306 26.380966 -0.974721 1.915985 -23.393777 0.000000 0.000000 0.000000 -22.615764 2.683430 -2.773032 -51.360089 -10.421512 -3.969530 -8.998131 -23.576946 3.095947 0.000000 0.000000 0.000000 14.675181 6.341665 2.249553 54.317053 11.574660 -2.396083 -3.066017 23.250250 0.416974 0.000000 0.000000 0.000000 
0.001742 0.936497 -0.000961 -1.377729 -0.387552 3.811250 11.060361 -0.233345 1.287251 -4.350524 0.442756 -7.866281 4.537350 12.156081 13.693812 0.000000 0.000000 0.000000 -7.197818 0.286857 -1.216914 3.107378 -0.339707 -1.397744 -5.639073 -15.618381 13.006607 0.000000 0.000000 0.000000 -3.396120 0.080092 -0.554449 5.230478 -1.008387 -19.014673 -1.391853 -0.755013 26.467320 -1.010984 1.908453 -23.381815 0.000000 0.000000 0.000000 -23.043228 2.914471 -2.899189 -51.141366 -10.451910 -3.971512 -8.462576 -23.670983 3.007390 0.000000 0.000000 0.000000 14.929803 6.289649 2.183856 53.977076 11.207830 -2.568232 -3.170384 23.777394 0.401740 0.000000 0.000000 0.000000 
0.001844 0.936714 -0.000995 -1.356811 -0.426988 3.692416 11.265773 -0.234764 1.220008 -4.511076 0.450970 -7.619630 4.471689 12.060636 13.751721 0.000000 0.000000 0.000000 -7.212683 0.279929 -1.061598 3.081792 -0.336163 -1.310408 -5.650944 -15.652089 13.098315 0.000000 0.000000 0.000000 -3.535690 0.079227 -0.382188 5.512617 -1.081839 -19.131597 -1.463249 -0.851570 26.747417 -0.915442 1.831713 -23.444299 0.000000 0.000000 0.000000 -23.317234 3.303015 -3.116985 -51.174114 -10.726443 -3.897108 -8.221419 -23.621385 2.962846 0.000000 0.000000 0.000000 15.295847 6.160939 2.095296 53.645141 10.972722 -2.699407 -3.312819 23.966391 0.376163 0.000000 0.000000 0.000000 
